<svg xmlns="http://www.w3.org/2000/svg" viewBox="0 0 114.5 30.561"><g fill="#fff"><path d="m18.15 14.203c-.03-3.374 2.763-5.02 2.89-5.092-1.582-2.306-4.03-2.621-4.895-2.647-2.059-.217-4.057 1.232-5.106 1.232-1.07 0-2.685-1.211-4.426-1.176-2.24.035-4.336 1.332-5.486 3.346-2.372 4.107-.603 10.142 1.67 13.462 1.137 1.626 2.465 3.441 4.209 3.377 1.701-.07 2.337-1.085 4.39-1.085 2.034 0 2.631 1.085 4.404 1.044 1.826-.029 2.975-1.633 4.072-3.274 1.314-1.863 1.841-3.699 1.862-3.793-.043-.015-3.546-1.352-3.58-5.396"/><path d="m14.797 4.281c.915-1.144 1.541-2.701 1.367-4.281-1.324.059-2.981.916-3.934 2.035-.844.986-1.598 2.603-1.403 4.123 1.488.111 3.02-.751 3.97-1.877"/><path d="m42.767 26.473h-2.378l-1.302-4.092h-4.527l-1.241 4.092h-2.315l4.485-13.932h2.77l4.507 13.932m-4.072-5.809l-1.178-3.638c-.125-.372-.358-1.247-.702-2.625h-.042c-.137.593-.358 1.468-.662 2.625l-1.157 3.638h3.741"/><path d="m54.3 21.326c0 1.709-.462 3.059-1.385 4.05-.827.883-1.854 1.323-3.08 1.323-1.323 0-2.274-.475-2.853-1.426h-.042v5.287h-2.232v-10.832c0-1.074-.028-2.177-.083-3.307h1.963l.125 1.592h.042c.744-1.2 1.874-1.799 3.39-1.799 1.185 0 2.174.468 2.966 1.405.794.938 1.189 2.171 1.189 3.701m-2.274.082c0-.978-.22-1.784-.662-2.418-.483-.662-1.131-.992-1.943-.992-.551 0-1.047.184-1.498.548-.448.366-.741.845-.878 1.437-.069.276-.104.503-.104.68v1.675c0 .731.224 1.347.672 1.851.448.504 1.03.755 1.746.755.841 0 1.495-.325 1.963-.972.469-.648.704-1.502.704-2.564"/><path d="m65.856 21.326c0 1.709-.462 3.059-1.386 4.05-.826.883-1.853 1.323-3.079 1.323-1.323 0-2.274-.475-2.852-1.426h-.042v5.287h-2.232v-10.832c0-1.074-.028-2.177-.083-3.307h1.963l.125 1.592h.042c.743-1.2 1.873-1.799 3.39-1.799 1.184 0 2.173.468 2.967 1.405.79.938 1.187 2.171 1.187 3.701m-2.274.082c0-.978-.221-1.784-.663-2.418-.483-.662-1.129-.992-1.942-.992-.552 0-1.047.184-1.499.548-.448.366-.74.845-.877 1.437-.068.276-.104.503-.104.68v1.675c0 .731.224 1.347.67 1.851.448.503 1.03.755 1.748.755.841 0 1.495-.325 1.963-.972.469-.648.704-1.502.704-2.564"/><path d="m78.78 22.566c0 1.185-.411 2.149-1.237 2.894-.908.813-2.171 1.22-3.795 1.22-1.499 0-2.701-.289-3.611-.868l.517-1.86c.98.593 2.055.89 3.227.89.841 0 1.495-.191 1.965-.57.468-.379.701-.888.701-1.522 0-.565-.193-1.042-.579-1.428-.384-.386-1.026-.745-1.922-1.077-2.439-.91-3.658-2.242-3.658-3.995 0-1.145.427-2.084 1.282-2.815.852-.732 1.989-1.097 3.411-1.097 1.268 0 2.321.221 3.162.662l-.558 1.82c-.785-.427-1.673-.641-2.666-.641-.785 0-1.399.194-1.838.579-.372.344-.558.764-.558 1.262 0 .551.213 1.01.64 1.364.372.331 1.047.689 2.027 1.075 1.199.483 2.079 1.047 2.646 1.694.564.645.846 1.452.846 2.415"/><path d="m86.16 18.1h-2.46v4.878c0 1.241.433 1.86 1.302 1.86.399 0 .73-.035.991-.104l.062 1.695c-.44.164-1.019.247-1.736.247-.881 0-1.57-.269-2.068-.806-.495-.538-.744-1.441-.744-2.708v-5.064h-1.466v-1.675h1.466v-1.839l2.192-.662v2.501h2.46v1.677"/><path d="m97.25 21.367c0 1.544-.442 2.812-1.323 3.803-.924 1.021-2.151 1.53-3.681 1.53-1.474 0-2.648-.489-3.523-1.467-.875-.978-1.313-2.212-1.313-3.7 0-1.557.45-2.832 1.354-3.823.901-.992 2.118-1.489 3.647-1.489 1.474 0 2.66.489 3.555 1.468.856.95 1.283 2.175 1.283 3.678m-2.316.072c0-.927-.198-1.721-.599-2.384-.468-.802-1.137-1.202-2-1.202-.897 0-1.579.401-2.047 1.202-.401.664-.599 1.471-.599 2.426 0 .927.198 1.721.599 2.383.483.802 1.157 1.202 2.027 1.202.852 0 1.521-.408 2-1.223.411-.675.619-1.478.619-2.404"/><path d="m104.51 18.39c-.221-.041-.456-.062-.704-.062-.785 0-1.392.296-1.82.89-.372.523-.558 1.185-.558 1.984v5.276h-2.231l.021-6.882c0-1.158-.028-2.212-.084-3.162h1.944l.082 1.922h.062c.236-.661.607-1.192 1.116-1.591.497-.359 1.034-.538 1.613-.538.206 0 .393.015.558.041v2.128"/><path d="m114.5 20.973c0 .4-.026.737-.082 1.012h-6.696c.026.992.35 1.751.972 2.275.564.468 1.294.702 2.19.702.991 0 1.896-.158 2.709-.475l.35 1.549c-.951.415-2.073.621-3.368.621-1.558 0-2.781-.459-3.67-1.375-.888-.916-1.333-2.146-1.333-3.689 0-1.515.414-2.776 1.242-3.782.867-1.074 2.038-1.611 3.512-1.611 1.448 0 2.544.537 3.288 1.611.589.853.886 1.908.886 3.162m-2.128-.579c.015-.662-.131-1.233-.433-1.716-.386-.621-.98-.931-1.779-.931-.73 0-1.323.303-1.777.91-.372.483-.593 1.062-.661 1.736h4.649"/><path d="m37.957 3.971c0 1.232-.37 2.16-1.108 2.783-.684.575-1.655.863-2.914.863-.624 0-1.158-.027-1.605-.082v-6.733c.583-.094 1.211-.142 1.89-.142 1.199 0 2.104.261 2.711.782.683.589 1.025 1.432 1.025 2.529m-1.157.03c0-.799-.211-1.411-.634-1.838-.423-.426-1.041-.64-1.854-.64-.345 0-.64.023-.884.071v5.118c.135.021.382.03.741.03.84 0 1.488-.233 1.944-.7.456-.467.687-1.147.687-2.041"/><path d="m44.09 5.05c0 .759-.217 1.381-.65 1.869-.454.501-1.057.752-1.808.752-.724 0-1.301-.24-1.732-.721-.429-.481-.644-1.087-.644-1.817 0-.764.221-1.391.665-1.878.444-.487 1.041-.731 1.792-.731.724 0 1.307.24 1.747.72.419.467.629 1.07.629 1.807m-1.138.036c0-.455-.098-.846-.294-1.171-.23-.394-.558-.59-.984-.59-.441 0-.776.197-1.01.59-.197.326-.294.722-.294 1.191 0 .455.098.846.294 1.171.238.394.568.59.996.59.419 0 .747-.2.984-.601.203-.332.305-.726.305-1.181"/><path d="m52.31 2.619l-1.544 4.935h-1.01l-.64-2.143c-.162-.535-.294-1.067-.397-1.594h-.02c-.095.542-.227 1.073-.397 1.594l-.679 2.143h-1.017l-1.452-4.935h1.128l.558 2.346c.135.555.246 1.084.335 1.584h.02c.082-.412.217-.938.407-1.573l.7-2.356h.894l.671 2.305c.162.562.294 1.103.396 1.625h.03c.074-.508.186-1.047.335-1.625l.599-2.305h1.077"/><path d="m58 7.554h-1.097v-2.827c0-.871-.331-1.307-.995-1.307-.326 0-.588.119-.793.359-.202.24-.305.522-.305.846v2.927h-1.097v-3.524c0-.433-.014-.903-.04-1.412h.964l.051.772h.03c.128-.24.318-.438.568-.596.297-.184.63-.277.995-.277.461 0 .844.149 1.148.447.379.365.568.911.568 1.635v2.956"/><path d="m61.03 7.554h-1.096v-7.2h1.096v7.2"/><path d="m67.49 5.05c0 .759-.217 1.381-.65 1.869-.454.501-1.057.752-1.808.752-.726 0-1.302-.24-1.732-.721-.429-.481-.644-1.087-.644-1.817 0-.764.221-1.391.665-1.878.444-.487 1.041-.731 1.791-.731.726 0 1.307.24 1.748.72.419.467.629 1.07.629 1.807m-1.139.036c0-.455-.098-.846-.294-1.171-.229-.394-.558-.59-.983-.59-.442 0-.777.197-1.01.59-.197.326-.294.722-.294 1.191 0 .455.098.846.294 1.171.238.394.568.59.996.59.419 0 .746-.2.983-.601.204-.332.305-.726.305-1.181"/><path d="m72.797 7.554h-.985l-.082-.568h-.03c-.337.453-.818.68-1.442.68-.466 0-.843-.15-1.126-.447-.258-.27-.386-.606-.386-1.01 0-.603.251-1.063.757-1.381.505-.318 1.214-.474 2.128-.467v-.092c0-.65-.341-.975-1.025-.975-.487 0-.916.122-1.287.365l-.223-.72c.459-.284 1.025-.426 1.693-.426 1.29 0 1.937.68 1.937 2.041v1.817c0 .493.024.886.071 1.177m-1.139-1.696v-.761c-1.21-.021-1.815.311-1.815.995 0 .258.069.45.21.579.141.129.321.193.536.193.241 0 .466-.076.671-.228.206-.153.333-.347.38-.584.012-.053.018-.118.018-.193"/><path d="m79.03 7.554h-.974l-.051-.793h-.03c-.311.603-.841.905-1.585.905-.595 0-1.09-.233-1.482-.7-.393-.467-.588-1.073-.588-1.817 0-.799.213-1.446.64-1.94.414-.461.92-.691 1.523-.691.663 0 1.126.223 1.39.67h.021v-2.833h1.098v5.87c0 .481.013.923.039 1.33m-1.137-2.081v-.823c0-.142-.01-.258-.03-.345-.062-.264-.195-.486-.397-.665-.204-.179-.45-.269-.734-.269-.409 0-.73.162-.965.488-.233.326-.352.741-.352 1.249 0 .488.112.884.337 1.188.238.325.558.487.959.487.36 0 .648-.135.867-.406.211-.25.315-.552.315-.903"/><path d="m88.42 5.05c0 .759-.217 1.381-.65 1.869-.454.501-1.057.752-1.808.752-.723 0-1.3-.24-1.732-.721-.429-.481-.644-1.087-.644-1.817 0-.764.221-1.391.665-1.878.444-.487 1.041-.731 1.793-.731.723 0 1.307.24 1.746.72.419.467.629 1.07.629 1.807m-1.137.036c0-.455-.098-.846-.294-1.171-.231-.394-.558-.59-.985-.59-.44 0-.775.197-1.01.59-.197.326-.294.722-.294 1.191 0 .455.098.846.294 1.171.238.394.568.59.996.59.419 0 .749-.2.985-.601.202-.332.305-.726.305-1.181"/><path d="m94.31 7.554h-1.096v-2.827c0-.871-.331-1.307-.996-1.307-.326 0-.588.119-.791.359-.203.24-.305.522-.305.846v2.927h-1.098v-3.524c0-.433-.013-.903-.039-1.412h.963l.051.772h.03c.129-.24.319-.438.568-.596.298-.184.63-.277.996-.277.46 0 .843.149 1.147.447.38.365.568.911.568 1.635v2.956"/><path d="m101.7 3.441h-1.208v2.397c0 .609.215.914.64.914.197 0 .36-.017.489-.051l.028.832c-.217.082-.501.122-.852.122-.433 0-.771-.132-1.014-.396-.245-.264-.366-.708-.366-1.331v-2.488h-.721v-.822h.721v-.905l1.075-.325v1.228h1.208v.823"/><path d="m107.5 7.554h-1.098v-2.806c0-.885-.331-1.327-.994-1.327-.509 0-.856.256-1.047.769-.032.108-.051.24-.051.395v2.968h-1.096v-7.198h1.096v2.974h.021c.345-.541.841-.811 1.482-.811.454 0 .83.149 1.129.447.372.372.558.924.558 1.655v2.934"/><path d="m113.5 4.853c0 .197-.015.362-.041.497h-3.29c.015.488.172.86.476 1.117.278.23.638.345 1.077.345.487 0 .931-.077 1.331-.233l.172.762c-.468.203-1.019.305-1.656.305-.764 0-1.366-.225-1.802-.675-.438-.45-.654-1.057-.654-1.812 0-.744.202-1.364.609-1.858.425-.528 1-.791 1.725-.791.71 0 1.249.264 1.613.791.294.419.44.937.44 1.553m-1.047-.284c.008-.326-.064-.606-.213-.843-.191-.305-.481-.457-.873-.457-.358 0-.65.149-.873.447-.182.238-.29.521-.326.853h2.284"/></g></svg>