<svg xmlns="http://www.w3.org/2000/svg" viewBox="0 0 117.21 27.3145"><g transform="translate(-10.09-6.763)" fill="#fff"><g stroke-miterlimit="10" stroke="#fff" stroke-width=".201"><path d="m47.976 10.244c0 .835-.253 1.504-.751 2-.573.591-1.319.889-2.233.889-.874 0-1.62-.303-2.232-.899-.613-.605-.919-1.348-.919-2.236 0-.889.306-1.631.919-2.231.612-.601 1.358-.904 2.232-.904.435 0 .85.089 1.246.254.395.166.716.391.949.669l-.529.528c-.406-.474-.959-.707-1.666-.707-.637 0-1.19.22-1.659.664-.464.445-.697 1.021-.697 1.729 0 .708.233 1.289.697 1.734.469.439 1.022.664 1.659.664.677 0 1.246-.225 1.695-.669.296-.294.464-.699.508-1.216h-2.203v-.723h2.939c.035.156.046.307.046.454z"/><path d="m52.639 7.739h-2.761v1.9h2.489v.723h-2.489v1.9h2.761v.736h-3.542v-5.995h3.542v.736z"/><path d="m55.929 12.997h-.782v-5.259h-1.693v-.736h4.17v.736h-1.695v5.259z"/><path d="m60.64 12.997v-5.995h.78v5.995h-.78z"/><path d="m64.881 12.997h-.775v-5.259h-1.7v-.736h4.175v.736h-1.7v5.259z"/><path d="m74.48 12.226c-.598.606-1.339.909-2.223.909-.889 0-1.63-.303-2.228-.909-.597-.605-.894-1.348-.894-2.226 0-.879.297-1.621.894-2.226.598-.606 1.339-.909 2.228-.909.879 0 1.62.303 2.218.914.602.61.899 1.348.899 2.221 0 .879-.297 1.621-.894 2.226zm-3.874-.502c.45.449.998.674 1.65.674.648 0 1.2-.225 1.645-.674.449-.449.677-1.025.677-1.724 0-.699-.228-1.275-.677-1.724-.445-.449-.998-.674-1.645-.674-.653 0-1.2.225-1.65.674-.449.449-.677 1.025-.677 1.724 0 .699.228 1.275.677 1.724z"/><path d="m76.47 12.997v-5.995h.949l2.949 4.662h.034l-.034-1.152v-3.51h.78v5.995h-.814l-3.088-4.893h-.034l.034 1.158v3.735h-.775z"/></g><path d="m68.937 21.753c-2.376 0-4.318 1.788-4.318 4.254 0 2.446 1.941 4.253 4.318 4.253 2.381 0 4.323-1.806 4.323-4.253 0-2.466-1.941-4.254-4.323-4.254m0 6.831c-1.304 0-2.426-1.064-2.426-2.578 0-1.534 1.122-2.579 2.426-2.579 1.304 0 2.431 1.045 2.431 2.579 0 1.514-1.127 2.578-2.431 2.578m-9.421-6.831c-2.381 0-4.318 1.788-4.318 4.254 0 2.446 1.936 4.253 4.318 4.253 2.38 0 4.318-1.806 4.318-4.253 0-2.466-1.938-4.254-4.318-4.254m0 6.831c-1.305 0-2.431-1.064-2.431-2.578 0-1.534 1.126-2.579 2.431-2.579 1.304 0 2.426 1.045 2.426 2.579 0 1.514-1.122 2.578-2.426 2.578m-11.21-5.528v1.808h4.367c-.128 1.01-.469 1.753-.993 2.27-.637.625-1.63 1.319-3.374 1.319-2.688 0-4.792-2.144-4.792-4.8 0-2.656 2.104-4.8 4.792-4.8 1.453 0 2.51.561 3.291 1.289l1.289-1.274c-1.091-1.03-2.543-1.821-4.58-1.821-3.685 0-6.783 2.964-6.783 6.606 0 3.642 3.097 6.606 6.783 6.606 1.992 0 3.488-.645 4.664-1.855 1.205-1.191 1.581-2.866 1.581-4.219 0-.42-.035-.806-.099-1.129h-6.147m45.841 1.401c-.355-.951-1.452-2.705-3.685-2.705-2.213 0-4.056 1.724-4.056 4.254 0 2.382 1.824 4.253 4.268 4.253 1.977 0 3.118-1.191 3.587-1.885l-1.467-.966c-.489.707-1.156 1.176-2.12 1.176-.957 0-1.644-.434-2.084-1.289l5.756-2.354-.199-.484m-5.868 1.416c-.049-1.64 1.289-2.48 2.247-2.48.751 0 1.389.371 1.601.903l-3.849 1.578m-4.678 4.126h1.892v-12.5h-1.892v12.5m-3.099-7.3h-.063c-.425-.498-1.236-.948-2.263-.948-2.155 0-4.125 1.87-4.125 4.267 0 2.384 1.97 4.239 4.125 4.239 1.027 0 1.838-.454 2.263-.966h.063v.61c0 1.626-.879 2.5-2.297 2.5-1.156 0-1.873-.825-2.169-1.519l-1.645.679c.474 1.128 1.73 2.515 3.814 2.515 2.218 0 4.09-1.29 4.09-4.429v-7.638h-1.793v.689m-2.164 5.884c-1.304 0-2.395-1.079-2.395-2.564 0-1.499 1.091-2.593 2.395-2.593 1.285 0 2.298 1.094 2.298 2.593 0 1.485-1.013 2.564-2.298 2.564m24.667-11.08h-4.525v12.5h1.887v-4.736h2.638c2.096 0 4.151-1.499 4.151-3.883 0-2.383-2.06-3.881-4.151-3.881m.049 6.02h-2.688v-4.286h2.688c1.409 0 2.213 1.156 2.213 2.143 0 .968-.804 2.144-2.213 2.144m11.664-1.796c-1.363 0-2.781.595-3.364 1.914l1.674.694c.36-.694 1.023-.919 1.724-.919.979 0 1.972.581 1.987 1.608v.131c-.341-.195-1.072-.484-1.972-.484-1.803 0-3.641.981-3.641 2.812 0 1.675 1.477 2.754 3.138 2.754 1.27 0 1.97-.566 2.411-1.225h.064v.966h1.822v-4.795c0-2.216-1.674-3.456-3.843-3.456m-.228 6.85c-.617 0-1.477-.303-1.477-1.059 0-.968 1.072-1.339 2-1.339.831 0 1.22.181 1.725.42-.148 1.157-1.156 1.977-2.249 1.977m10.711-6.576l-2.169 5.419h-.064l-2.242-5.419h-2.035l3.369 7.572-1.922 4.214h1.972l5.192-11.786h-2.099m-17.01 7.998h1.892v-12.5h-1.892v12.5"/></g><path d="m.469.777c-.297.307-.469.786-.469 1.406v22.11c0 .62.172 1.099.469 1.406l.073.068 12.538-12.388v-.292l-12.538-12.388-.073.072" fill="#00d2ff"/><path d="m17.255 17.515l-4.175-4.131v-.292l4.18-4.131.094.054 4.95 2.784c1.413.79 1.413 2.09 0 2.885l-4.95 2.779-.099.054" fill="#ffcb00"/><path d="m17.354 17.458l-4.273-4.224-12.612 12.466c.469.488 1.234.546 2.104.059l14.781-8.301" fill="#ff3a44"/><path d="m17.354 9.02l-14.781-8.301c-.87-.482-1.635-.424-2.104.064l12.612 12.461 4.273-4.224" fill="#00f076"/></svg>