<svg xmlns="http://www.w3.org/2000/svg" viewBox="0 0 535 311"><g fill="#5ec6ff"><path d="m52.55 237.01l-5.323 1.27 5.777 23.72-34.664 8.489 1.27 5.323c.349 1.464 1.833 2.376 3.297 2.027l29.1-6.839 13 8-9.155-39.963c-.349-1.464-1.833-2.376-3.297-2.027m-6.838 18.51l-5.714-23.956c-.349-1.464-1.833-2.376-3.297-2.027l-34.601 8.253c-1.464.349-2.376 1.833-2.027 3.297l8.929 36.913 8-13 26.683-6.186c1.464-.349 2.376-1.833 2.027-3.297"/><path d="m172.94 153.29l-23.32-5.58c-3.207-.767-6.429 1.236-7.196 4.442l-11.189 46.636c-.767 3.207 1.2 6.451 4.406 7.218l35.01 8.377c3.207.767 6.458-1.229 7.225-4.435l8.37-34.982-13.306-21.676m-5.329 48.04l-23.32-5.58 1.395-5.83 23.32 5.58-1.395 5.83m2.79-11.66l-23.32-5.58 1.395-5.83 23.32 5.58-1.395 5.83m-5.258-16.668l3.836-16.03 12.197 19.869-16.03-3.836"/><path d="m420.67 74.25l-2.821-.749 1.496-5.65c2.064-7.796-2.579-15.802-10.364-17.869-7.785-2.067-15.778 2.583-17.842 10.379l-1.496 5.65-2.821-.749c-3.103-.824-6.315 1.044-7.137 4.152l-7.479 28.25c-.823 3.107 1.043 6.324 4.146 7.148l33.848 8.988c3.103.824 6.315-1.044 7.137-4.152l7.479-28.25c.823-3.107-1.043-6.324-4.146-7.148m-23.655 20.929c-3.103-.824-4.968-4.04-4.146-7.148.823-3.107 4.03-4.975 7.137-4.152 3.103.824 4.968 4.04 4.146 7.148-.823 3.107-4.03 4.976-7.137 4.152m15.475-23.1l-17.488-4.644 1.496-5.65c1.279-4.83 6.239-7.716 11.06-6.435 4.823 1.281 7.705 6.248 6.426 11.08l-1.496 5.65"/><path d="m482.53.789c-12.744 3.346-20.317 16.257-16.937 28.875 4.586 17.12 34.406 36.33 34.406 36.33 0 0 16.282-31.32 11.697-48.43-3.38-12.617-16.421-20.11-29.17-16.768m8.298 30.972c-4.545 1.193-9.211-1.49-10.416-5.989-1.205-4.499 1.505-9.119 6.05-10.312 4.545-1.193 9.211 1.49 10.416 5.989 1.205 4.499-1.505 9.119-6.05 10.312"/><path d="m303.65 84.69l-9.985 3.278c-2.509-2.247-5.494-3.905-8.754-4.842l3.891-7.693-6.655-3.366-5.18 10.242c-1.763.146-3.503.481-5.244 1.052-1.741.572-3.341 1.333-4.812 2.249l-10.278-5.168-3.366 6.655 7.658 3.903c-2.035 2.675-3.456 5.779-4.146 9.08l-9.985 3.278 2.333 7.107 7.427-2.438c.207 1.231.45 2.45.847 3.658l1.166 3.554-7.107 2.333 2.333 7.107 7.107-2.333 1.166 3.553c.397 1.208.924 2.334 1.486 3.449l-7.427 2.438 2.333 7.107 9.985-3.278c5.783 5.148 14.05 7.196 21.941 4.607 7.889-2.589 13.336-9.14 14.943-16.714l9.985-3.278-2.333-7.107-7.427 2.438c-.207-1.231-.45-2.45-.847-3.658l-1.166-3.554 7.107-2.333-2.333-7.107-7.107 2.333-1.166-3.554c-.397-1.208-.924-2.334-1.486-3.449l7.427-2.438-2.333-7.107m-11.99 35.427l-14.213 4.666-2.333-7.107 14.213-4.666 2.333 7.107m-4.666-14.214l-14.213 4.666-2.333-7.107 14.213-4.666 2.333 7.107"/><path d="m535 81.995c-27.866.036-52.993 19.13-60 46-10.157-2.696-20.372-4.35-30.982-4.362-41.646.051-79.896 21.434-98.02 54.36-13.588-7.05-28.25-11.184-43.41-11.227-52.48.068-95.66 43.39-98.59 98.23-13.351-15.804-33.431-25.38-54.5-25.396-38.855 0-70.35 30.55-70.35 68.24.029 1.055-.228 2.108-.148 3.161h456"/></g></svg>