<svg xmlns="http://www.w3.org/2000/svg" viewBox="0 0 471 292" height="292" width="471"><g fill="#5ec6ff"><path d="m69.66 18.828c5.139-1.415 8.125-6.726 6.712-11.867-1.413-5.142-6.694-8.178-11.833-6.764-5.139 1.415-8.163 6.736-6.749 11.877 1.413 5.142 6.731 8.167 11.87 6.754m-28.953 3.96c6.182-1.701 9.762-8.05 8.06-14.243-1.7-6.185-8.03-9.815-14.207-8.114-6.182 1.701-9.799 8.06-8.099 14.254 1.7 6.185 8.06 9.805 14.244 8.104m30.999 3.492c-6.815 1.875-19.538 9.06-17.664 15.883l2.305 8.383 40.962-11.273-2.305-8.383c-1.874-6.819-16.482-6.485-23.297-4.61m-28.953 3.96c-8.677 2.388-24.868 11.534-22.482 20.21l2.561 9.316 26.07-7.174-2.305-8.383c-.871-3.168-1.168-9.05 5.272-15.359-3.424.221-6.655.709-9.112 1.386"/><path d="m-.001 65.753v226.1h391c-4.919-22.15-25.724-38.03-49.891-38.04-8.698.019-17.523 2.053-25.11 6.04-17.17-25.01-42.612-39.468-69.776-39.495-13.592.047-26.996 3.446-39.23 10.494-8.889-21.361-30.41-35.954-55-38-9.711-13.988-22.399-25.909-37-34l2-7c13.36 2.362 28.33-4.873 32.736-18.17l-6.604-2.19c-3.864 11.661-16.436 16.551-27.16 12.993-10.722-3.558-17.883-14.996-14.02-26.657l-6.604-2.19c-4.393 13.255 2.541 28.08 14.65 34.21l-2 6c-8.971-4.165-18.291-7.503-28-9-12.556-42.475-43.21-73.23-80-81m130.5 23.2c-5.236-.101-10.138 3.18-11.875 8.422l-7.729 23.321c-2.138 6.452 1.341 13.388 7.789 15.528 6.449 2.139 13.342-1.355 15.479-7.807l7.768-23.309c2.138-6.452-1.342-13.388-7.791-15.528-1.209-.401-2.434-.604-3.643-.627z"/><path d="m261.67 119.49l-54.15-8.05c-4.964-.738-9.629 2.722-10.366 7.689l-8.05 54.19c-.737 4.967 2.72 9.634 7.684 10.373l54.15 8.05c4.964.738 9.629-2.722 10.366-7.689l8.05-54.19c.737-4.967-2.72-9.634-7.684-10.373m-12.377 21.231l-13.538-2.01-3.687 24.834c-.925 6.231-6.73 10.537-12.958 9.611-6.227-.925-10.531-6.735-9.605-12.966.925-6.231 6.73-10.537 12.958-9.611 2.572.382 4.746 1.583 6.427 3.309l3.694-24.879 18.05 2.683z"/><path d="m446.37511 247.85337a9.208836 9.212751 0 0 1 -9.20884 9.21275 9.208836 9.212751 0 0 1 -9.20883 -9.21275 9.208836 9.212751 0 0 1 9.20883 -9.21275 9.208836 9.212751 0 0 1 9.20884 9.21275"/><path d="m417.45 225.17l-2.429 7.417-8.312 3.759c-2.884 1.304-4.178 4.733-2.874 7.619l14.219 31.486c1.303 2.886 4.73 4.181 7.614 2.876l41.954-18.971c2.884-1.304 4.178-4.733 2.874-7.619l-14.219-31.486c-1.303-2.886-4.73-4.181-7.614-2.876l-8.312 3.759-7.168-3.078-15.733 7.114m25.64 35.801c-7.237 3.272-15.765.051-19.04-7.191-3.27-7.242-.051-15.775 7.186-19.05 7.237-3.272 15.765-.051 19.04 7.191 3.27 7.242.051 15.775-7.186 19.05"/><path d="m366.74 202.8c-11.219-4.847-24.25-5.589-36.648-1.047-12.399 4.541-21.87 13.527-27.31 24.476-.312.672-.362 1.465-.082 2.23.28.765.83 1.339 1.502 1.65l9.252 4.296c.672.312 1.464.362 2.229.082.737-.27 1.31-.82 1.632-1.466 1.418-2.812 3.256-5.407 5.415-7.716.741-.767 1.029-1.927.63-3.02l-3.099-8.472c3.48-2.762 7.463-4.996 11.833-6.597 4.37-1.601 8.853-2.468 13.282-2.634l3.099 8.472c.39 1.066 1.368 1.792 2.429 1.899 3.166.358 6.227 1.19 9.114 2.394.672.312 1.454.335 2.192.065.765-.28 1.337-.83 1.649-1.503l4.293-9.258c.312-.672.362-1.465.082-2.23-.27-.737-.82-1.311-1.492-1.623m-17.371-25.896l-5.26-2.442-6.173 13.262 5.26 2.442c0 0 5.903-13.07 6.173-13.262m-26.543-3.478l-5.462 2 4.999 13.663 5.462-2-4.999-13.663m-10.216 27.945l2.441-5.264-13.254-6.177-2.458 5.301c.33-.028 13.272 6.139 13.272 6.139"/></g></svg>