<svg xmlns="http://www.w3.org/2000/svg" viewBox="0 0 97 24"><path d="m0 .783h11v11h-11z" fill="#f25022"/><path d="m12 .783h11v11h-11z" fill="#7fba00"/><path d="m0 12.783h11v11h-11z" fill="#00a4ef"/><path d="m12 12.783h11v11h-11z" fill="#ffb900"/><g fill="#fff"><path d="m46.12 13.14c0-.325.117-.585.35-.806.234-.221.506-.325.832-.325.337 0 .623.117.845.338.221.221.337.494.337.793 0 .312-.117.585-.35.793-.234.221-.506.325-.845.325-.337 0-.61-.104-.845-.325-.208-.221-.325-.481-.325-.793m2.143 10.641h-1.935v-8.26h1.935v8.26z"/><path d="m54.16 22.374c.286 0 .61-.065.962-.195.35-.13.662-.312.962-.533v1.808c-.312.182-.662.312-1.052.403-.389.091-.832.143-1.299.143-1.208 0-2.195-.39-2.962-1.158-.766-.767-1.143-1.756-1.143-2.94 0-1.327.389-2.42 1.169-3.278.779-.859 1.87-1.288 3.299-1.288.363 0 .727.052 1.104.143.376.091.662.208.884.325v1.86c-.299-.221-.61-.39-.923-.507-.312-.117-.636-.182-.962-.182-.766 0-1.377.247-1.857.741-.467.494-.701 1.171-.701 2.02 0 .833.221 1.483.675 1.951.454.468 1.065.689 1.844.689"/><path d="m61.61 15.389c.156 0 .299.013.415.026.117.026.234.052.312.078v1.964c-.104-.078-.247-.143-.441-.208-.195-.065-.428-.104-.714-.104-.48 0-.884.195-1.208.598-.325.403-.493 1.015-.493 1.86v4.176h-1.935v-8.26h1.935v1.301h.026c.182-.455.441-.806.806-1.054.363-.247.792-.377 1.299-.377"/><path d="m62.43 19.779c0-1.366.389-2.446 1.156-3.252.766-.793 1.844-1.197 3.208-1.197 1.286 0 2.299.39 3.03 1.158.727.767 1.091 1.808 1.091 3.109 0 1.34-.389 2.406-1.156 3.2-.766.793-1.818 1.184-3.143 1.184-1.273 0-2.299-.377-3.039-1.132-.766-.741-1.143-1.769-1.143-3.07m2.026-.065c0 .859.195 1.522.584 1.977.389.455.949.676 1.675.676.701 0 1.247-.221 1.611-.676.363-.455.558-1.132.558-2.029 0-.885-.195-1.561-.571-2.02-.376-.455-.923-.676-1.611-.676-.714 0-1.26.234-1.663.715-.389.481-.584 1.145-.584 2.029"/><path d="m73.8 17.699c0 .273.091.494.26.65.182.156.571.351 1.169.598.779.312 1.325.663 1.637 1.054.312.39.467.859.467 1.405 0 .78-.299 1.405-.897 1.873-.597.468-1.403.702-2.416.702-.337 0-.714-.039-1.13-.13-.415-.078-.766-.195-1.052-.312v-1.912c.35.247.727.442 1.143.585.402.143.779.221 1.104.221.441 0 .766-.065.975-.182.208-.117.312-.325.312-.624 0-.273-.104-.494-.325-.676-.221-.182-.623-.403-1.234-.637-.714-.299-1.221-.637-1.52-1.015-.299-.377-.454-.859-.454-1.431 0-.741.299-1.353.884-1.834.584-.481 1.351-.715 2.299-.715.286 0 .61.026.975.091.363.065.662.143.897.247v1.847c-.26-.169-.558-.312-.897-.442-.337-.117-.688-.182-1.013-.182-.363 0-.662.078-.858.221-.221.143-.325.351-.325.598"/><path d="m78.19 19.779c0-1.366.389-2.446 1.156-3.252.766-.793 1.844-1.197 3.208-1.197 1.286 0 2.299.39 3.03 1.158.727.767 1.091 1.808 1.091 3.109 0 1.34-.389 2.406-1.156 3.2-.766.793-1.818 1.184-3.143 1.184-1.273 0-2.299-.377-3.039-1.132-.766-.741-1.143-1.769-1.143-3.07m2.02-.065c0 .859.195 1.522.584 1.977.389.455.949.676 1.675.676.701 0 1.247-.221 1.611-.676.363-.455.558-1.132.558-2.029 0-.885-.195-1.561-.571-2.02-.376-.455-.923-.676-1.611-.676-.714 0-1.26.234-1.663.715-.389.481-.584 1.145-.584 2.029"/><path d="m93.08 17.12v4.241c0 .885.208 1.535.61 1.977.402.442 1.026.65 1.844.65.273 0 .558-.026.845-.091.286-.065.493-.117.61-.195v-1.613c-.117.078-.26.143-.415.195-.156.052-.299.078-.402.078-.389 0-.688-.104-.871-.312-.182-.208-.273-.572-.273-1.08v-3.863h1.974v-1.587h-1.961v-2.446l-1.948.598v1.86h-2.897v-1c0-.494.104-.872.325-1.132.221-.26.532-.377.936-.377.208 0 .389.026.558.078.156.052.273.104.337.143v-1.678c-.143-.052-.299-.078-.48-.104-.182-.026-.389-.039-.623-.039-.884 0-1.611.273-2.169.833-.558.559-.845 1.262-.845 2.133v1.145h-1.377v1.587h1.377v6.673h1.961v-6.673h2.884"/><path d="m33.844 23.783h-1.844v-11.525h2.858l3.312 8.546h.052l3.494-8.546h2.741v11.525h-1.997v-9.03h-.026l-3.572 9.03h-1.325l-3.663-9.03h-.026z"/><path d="m37.423 7.414c-.688.39-1.468.585-2.337.585-.662 0-1.247-.143-1.766-.442-.506-.286-.91-.702-1.182-1.236-.273-.533-.415-1.132-.415-1.795 0-.702.156-1.34.454-1.886.299-.546.727-.989 1.286-1.301.558-.312 1.182-.468 1.883-.468.35 0 .701.039 1.052.104.35.065.636.156.858.26v1.041c-.519-.351-1.182-.52-1.987-.52-.48 0-.91.117-1.299.351-.389.234-.688.559-.897.963-.208.416-.312.885-.312 1.405 0 .82.221 1.47.649 1.951.428.481 1.026.715 1.779.715.48 0 .91-.091 1.273-.286v-1.782h-1.468v-.859h2.429v3.2"/><path d="m43.01 5.684h-3.403c.013.494.169.872.428 1.145.273.26.623.403 1.065.403.584 0 1.091-.169 1.533-.507v.833c-.195.13-.441.247-.74.325-.299.078-.61.117-.923.117-.74 0-1.325-.221-1.727-.663-.402-.442-.61-1.067-.61-1.873 0-.494.104-.95.299-1.34.195-.403.48-.715.832-.937.35-.221.753-.338 1.182-.338.636 0 1.143.208 1.507.624.363.416.545.989.545 1.73v.481zm-.949-.741c0-.429-.104-.754-.299-.976-.195-.221-.467-.338-.832-.338-.325 0-.61.117-.858.351-.247.234-.389.559-.467.963h2.455"/><path d="m46.71 7.824c-.091.052-.208.091-.376.117-.156.026-.299.039-.428.039-.91 0-1.364-.507-1.364-1.509v-2.732h-.832v-.78h.832v-1.171l.949-.299v1.457h1.208v.78h-1.208v2.576c0 .325.052.559.156.689.104.13.286.195.558.195.182 0 .35-.052.493-.156v.793z"/><path d="m51.41 1.224c0 .156-.052.286-.169.403-.117.117-.26.169-.428.169-.169 0-.312-.052-.428-.169-.117-.104-.169-.247-.169-.416 0-.169.065-.312.182-.416.117-.104.26-.169.415-.169.156 0 .299.052.415.169.13.13.182.26.182.429m-.13 6.66h-.949v-4.917h.949v4.917z"/><path d="m55.39 7.824c-.091.052-.208.091-.376.117-.156.026-.299.039-.428.039-.91 0-1.364-.507-1.364-1.509v-2.732h-.832v-.78h.832v-1.171l.949-.299v1.457h1.208v.78h-1.208v2.576c0 .325.052.559.156.689.104.13.286.195.558.195.182 0 .35-.052.493-.156v.793z"/><path d="m61.61 1.404c-.156-.078-.325-.13-.519-.13-.532 0-.792.325-.792.976v.702h1.117v.78h-1.117v4.137h-.949v-4.124h-.832v-.78h.832v-.754c0-.52.143-.937.441-1.249.299-.312.701-.468 1.221-.468.26 0 .454.026.61.091v.82z"/><path d="m65.1 3.914c-.052-.039-.156-.078-.286-.117-.13-.026-.247-.052-.337-.052-.337 0-.61.156-.819.455-.208.299-.312.689-.312 1.171v2.511h-.949v-4.917h.949v.989h.026c.104-.338.273-.598.493-.793.221-.195.48-.286.766-.286.195 0 .35.026.454.065v.976z"/><path d="m70.51 5.394c0 .793-.234 1.431-.688 1.899-.454.468-1.065.702-1.818.702-.74 0-1.338-.234-1.779-.689-.441-.455-.662-1.067-.662-1.834 0-.82.234-1.457.688-1.925.454-.468 1.078-.702 1.87-.702.74 0 1.325.221 1.74.676.441.455.649 1.08.649 1.873m-.975.026c0-.585-.13-1.028-.376-1.327-.26-.299-.61-.455-1.078-.455-.467 0-.845.156-1.117.481-.273.312-.402.767-.402 1.34 0 .559.13.989.402 1.301.273.312.636.468 1.117.468.48 0 .845-.156 1.091-.455.234-.325.363-.767.363-1.353"/><path d="m78.999 7.884h-.949v-2.797c0-.507-.078-.872-.234-1.106-.156-.234-.428-.338-.806-.338-.312 0-.584.143-.792.429-.221.286-.325.637-.325 1.028v2.784h-.949v-2.888c0-.898-.35-1.353-1.039-1.353-.325 0-.597.143-.806.416-.208.273-.312.624-.312 1.054v2.784h-.949v-4.93h.949v.767h.013c.35-.598.871-.885 1.533-.885.312 0 .597.091.858.26.247.169.428.416.545.728.195-.338.415-.585.688-.754.273-.156.584-.247.949-.247 1.078 0 1.611.663 1.611 2v3.044z"/></g></svg>