<svg height="251.23582" viewBox="0 0 450 251.2402" width="450" xmlns="http://www.w3.org/2000/svg"><g fill="#3baded" transform="translate(-228.50537 -88.439795)"><path d="m386.34 157.61-157.84 139.7 167.84-128.6"/><path d="m537.92 245.24-116.87 94.44 101.73-99.34z"/></g><g transform="matrix(.65229 0 0 .65229 -52.26537 -60.139795)"><path d="m427.21 319.3c-8.6 0-7.1-3.2-10.1-11.4l-25.2-83.1 194.3-115.3z" fill="#c6d8e8"/><path d="m431.71 251.7 42.41213 27.89611-33.61213 33.10389c-3.7 3.6-6.6 6.6-13.2 6.6z" fill="#a1bed4"/><path d="m554.61 140.8c5.4-4.8-1.2-7.1-8.3-2.8l-151.7 95.7-65.5-20.4c-14.2-4.4-14.3-14.1 3.2-21.1l255.2-98.4c11.7-5.3 22.9 2.8 18.5 20.6l-43.5 204.9c-3 14.6-11.8 18-24 11.3l-106.8-78.9" fill="#fff"/></g></svg>