<?xml version="1.0" standalone="no"?>
<!DOCTYPE svg PUBLIC "-//W3C//DTD SVG 20010904//EN"
 "http://www.w3.org/TR/2001/REC-SVG-20010904/DTD/svg10.dtd">
<svg version="1.0" xmlns="http://www.w3.org/2000/svg"
 width="700.000000pt" height="700.000000pt" viewBox="0 0 700.000000 700.000000"
 preserveAspectRatio="xMidYMid meet">
<metadata>
Created by potrace 1.14, written by Peter Selinger 2001-2017
</metadata>
<g transform="translate(0.000000,700.000000) scale(0.100000,-0.100000)"
fill="#000000" stroke="none">
<path d="M3163 6334 c-838 -101 -1589 -568 -2053 -1276 -190 -289 -337 -647
-405 -982 -75 -368 -75 -784 0 -1152 85 -418 277 -834 548 -1183 105 -136 352
-383 488 -488 397 -308 845 -499 1359 -580 165 -26 635 -26 800 0 640 101
1176 370 1616 811 443 445 711 978 811 1616 25 165 26 635 0 800 -99 637 -368
1171 -811 1616 -459 460 -1043 743 -1692 819 -159 19 -505 18 -661 -1z m1636
-1668 c48 -26 65 -76 58 -180 -7 -118 -303 -2039 -348 -2266 -26 -128 -97
-200 -197 -200 -115 0 -216 52 -594 303 -630 419 -698 479 -667 591 12 44 27
59 339 351 344 322 628 604 657 652 33 57 29 97 -12 101 -53 5 -163 -63 -800
-493 -363 -245 -641 -426 -670 -436 -69 -25 -209 -25 -306 0 -41 10 -186 56
-323 101 -271 89 -296 103 -296 166 0 50 53 103 147 146 43 20 526 221 1073
446 547 226 1159 479 1360 563 201 83 388 158 415 165 57 15 122 11 164 -10z"/>
</g>
</svg>
