<?xml version="1.0" encoding="UTF-8" standalone="no"?>
<svg id="svg2" xmlns:rdf="http://www.w3.org/1999/02/22-rdf-syntax-ns#" xmlns="http://www.w3.org/2000/svg" height="100%" width="100%" version="1.1" xmlns:cc="http://creativecommons.org/ns#" viewBox="15.5 15.5 40 40" xmlns:dc="http://purl.org/dc/elements/1.1/">
 <metadata id="metadata51">
  <rdf:RDF>
   <cc:Work rdf:about="">
    <dc:format>image/svg+xml</dc:format>
    <dc:type rdf:resource="http://purl.org/dc/dcmitype/StillImage"/>
    <dc:title/>
   </cc:Work>
  </rdf:RDF>
 </metadata>
 <defs id="defs4">
  <radialGradient id="r" gradientUnits="userSpaceOnUse" cy="19.525" cx="106.74" gradientTransform="matrix(.22058 0 0 .14528 12.63 12.663)" r="78.327">
   <stop id="stop7" stop-color="#f06b59" offset="0"/>
   <stop id="stop9" stop-color="#df2227" offset="1"/>
  </radialGradient>
  <radialGradient id="g" gradientUnits="userSpaceOnUse" cy="108.81" cx="122.27" gradientTransform="matrix(.16622 0 0 .19280 12.63 12.663)" r="122.77">
   <stop id="stop12" stop-color="#4cb749" offset="0.65"/>
   <stop id="stop14" stop-color="#388b41" offset="1"/>
  </radialGradient>
  <radialGradient id="y" gradientUnits="userSpaceOnUse" cy="102.25" cx="187.9" gradientTransform="matrix(.15470 0 0 .20715 12.63 12.663)" r="111.51">
   <stop id="stop17" stop-color="#fcd209" offset="0.6"/>
   <stop id="stop19" stop-color="#f7c616" offset="0.7"/>
   <stop id="stop21" stop-color="#bc821e" offset="1"/>
  </radialGradient>
  <radialGradient id="cf" gradientUnits="userSpaceOnUse" cy="78.1" cx="127.5" r="99">
   <stop id="stop24" stop-color="#7fb3df" offset=".1"/>
   <stop id="stop26" stop-color="#0f5b94" offset="0.9"/>
  </radialGradient>
  <radialGradient id="cb" gradientUnits="userSpaceOnUse" cy="78.1" cx="127.5" r="99">
   <stop id="stop29" stop-color="#f6f0ee" offset="0"/>
   <stop id="stop31" stop-color="#ddd" offset="1"/>
  </radialGradient>
 </defs>
 <path id="path33" fill-opacity=".1" d="m48.08 39.154a12.533 12.53 0 1 0 -25.066 0h3.5808a8.9521 8.9497 0 1 1 17.904 0"/>
 <circle id="circle35" stroke-width="9" transform="matrix(.17904 0 0 .17899 12.63 12.663)" stroke="url(#cb)" cy="127.6" cx="127.5" r="45" fill="url(#cf)"/>
 <path id="path37" fill="url(#r)" d="m53.451 26.625a20.053 20.047 0 0 0 -34.555 -2.327l8.0569 13.961a8.9521 8.9497 0 0 1 8.415 -11.635"/>
 <path id="path39" fill="url(#g)" d="m18.896 24.298a20.053 20.047 0 0 0 15.04 31.145l8.415-14.32a8.9521 8.9497 0 0 1 -15.398 -2.864"/>
 <path id="path41" fill="url(#y)" d="m33.936 55.443a20.053 20.047 0 0 0 19.515 -28.818h-18.083a8.9521 8.9497 0 0 1 6.9826 14.498"/>
 <path id="path43" opacity=".075" d="m18.896 24.298 8.0569 13.961a8.9521 8.9497 0 0 1 0.35808 -6.0858l-8.0569-8.4127"/>
 <path id="path45" opacity=".05" d="m33.936 55.443 8.415-14.32a8.9521 8.9497 0 0 1 -5.193 3.043l-3.5808 11.277"/>
 <path id="path47" opacity=".05" d="m53.451 26.625h-18.083a8.9521 8.9497 0 0 1 6.9826 3.4009l11.459-2.8639"/>
</svg>