<svg xmlns="http://www.w3.org/2000/svg" width="40" height="40"><g fill="#BED0E4"><path d="M38 5.069h-14.722c-4.763 7.203-5.704 13.844-5.887 16.131h6.853l-.361 1.109c-.011.039-.651 2.079-.72 5.223 5.671-.548 8.596-2.416 8.629-2.441l.93 1.414c-.152.102-3.337 2.164-9.542 2.724.073 1.612.321 3.428.84 5.353h13.98v-29.513zm-9.954 8.955h-1.848v-4.383h1.848v4.383zM19.999 29.374c-8.263 0-12.545-2.735-12.72-2.856l.919-1.417c.039.025 4.085 2.581 11.801 2.581.499 0 .978-.01 1.442-.029.037-2.091.319-3.744.544-4.763h-6.327l-.005-.841c0-.382.049-8.106 5.602-16.98h-19.255v29.513h20.26c-.478-1.882-.714-3.652-.788-5.237-.475.019-.969.029-1.473.029zm-9.264-19.733h1.845v4.382h-1.845v-4.382zM12.58 9.641h-1.845v4.383h1.845v-4.383zm20.141 16.864l-.93-1.414c-.033.025-2.958 1.893-8.629 2.441.07-3.144.709-5.184.72-5.223l.361-1.109h-6.852c.215-2.685 1.47-11.366 8.728-19.915l-1.286-1.098c-9.113 10.727-9.178 21.41-9.178 21.861l.005.841h6.327c-.225 1.019-.507 2.672-.544 4.763-.464.019-.943.029-1.442.029-7.716 0-11.762-2.555-11.801-2.581l-.919 1.417c.176.121 4.457 2.855 12.72 2.855.504 0 .997-.01 1.473-.029.14 2.992.829 6.633 2.713 10.468l1.517-.749c-1.763-3.583-2.394-7.014-2.522-9.835 6.202-.558 9.387-2.621 9.539-2.722zm-4.675-16.864h-1.848v4.383h1.848v-4.383z"/></g><path fill="#BED0E4" d="M38 5.069h-14.722c-4.763 7.203-5.704 13.844-5.887 16.131h6.853l-.361 1.109c-.011.039-.651 2.079-.72 5.223 5.671-.548 8.596-2.416 8.629-2.441l.93 1.414c-.152.102-3.337 2.164-9.542 2.724.073 1.612.321 3.428.84 5.353h13.98v-29.513zm-9.954 8.955h-1.848v-4.383h1.848v4.383z"/><path fill="#3D8FCA" d="M19.999 29.374c-8.263 0-12.545-2.735-12.72-2.856l.919-1.417c.039.025 4.085 2.581 11.801 2.581.499 0 .978-.01 1.442-.029.037-2.091.319-3.744.544-4.763h-6.327l-.005-.841c0-.382.049-8.106 5.602-16.98h-19.255v29.513h20.26c-.478-1.882-.714-3.652-.788-5.237-.475.019-.969.029-1.473.029zm-9.264-19.733h1.845v4.382h-1.845v-4.382z"/><path fill="#231F20" d="M12.58 9.641h-1.845v4.383h1.845v-4.383zm20.141 16.864l-.93-1.414c-.033.025-2.958 1.893-8.629 2.441.07-3.144.709-5.184.72-5.223l.361-1.109h-6.852c.215-2.685 1.47-11.366 8.728-19.915l-1.286-1.098c-9.113 10.727-9.178 21.41-9.178 21.861l.005.841h6.327c-.225 1.019-.507 2.672-.544 4.763-.464.019-.943.029-1.442.029-7.716 0-11.762-2.555-11.801-2.581l-.919 1.417c.176.121 4.457 2.855 12.72 2.855.504 0 .997-.01 1.473-.029.14 2.992.829 6.633 2.713 10.468l1.517-.749c-1.763-3.583-2.394-7.014-2.522-9.835 6.202-.558 9.387-2.621 9.539-2.722zm-4.675-16.864h-1.848v4.383h1.848v-4.383z"/></svg>