<svg xmlns="http://www.w3.org/2000/svg" width="40" height="40"><path d="M33.421 25.843c-.499 2.052-3.026 6.338-4.369 8.224-1.343 1.894-1.177 3.598-3.659 2.935-2.475-.664-3.169-.544-5.727-.393-2.542.151-1.992-.075-3.584.641-1.584.717-6.904-8.691-7.333-10.443-.423-1.75-.342-1.968.475-4.001.675-1.681 1.475-3.621 2.716-5.49 1.507-2.269 3.139-3.471 3.018-5.229-.475-6.527-.852-9.786 2.044-11.295 2.762-1.433 5.071-.582 5.984-.091.392.212 1.192.619 1.788 1.336.596.701 1.132 1.766 1.434 3.108.619 2.694-.256 1.803.445 4.89.695 3.078 2.105 4.587 3.826 7.024 1.719 2.439 3.515 6.46 2.942 8.784zM28.275 15.73c.07-.049.078-.123.021-.206-.057-.084-.137-.108-.204-.063-.056.038-.063.086-.026.185l.024.062-.012.09c-.034.023-.079.005-.114-.045l-.025-.088.035-.048-.041-.06c-.081.059-.089.133-.025.227.062.091.146.118.215.07.054-.037.062-.087.031-.17l-.025-.064.006-.102c.033-.022.074-.008.106.039.031.046.028.084-.008.112l.042.061zM28.474 15.807l-.039-.057-.36.246.039.057.36-.246zm.141-.096l-.039-.058-.072.049.039.058.072-.049zM28.541 15.904l-.36.246.039.058.226-.154c.052-.036.12-.026.152.02.029.043.019.084-.027.116l-.248.169.04.058.226-.154c.052-.036.12-.027.152.02.029.042.019.085-.027.116l-.248.169.04.058.27-.184c.064-.044.075-.105.029-.173l-.13-.073-.011-.134c-.033-.048-.072-.067-.137-.069l.051-.035-.037-.054zM29.037 16.608c-.069-.101-.183-.113-.304-.03s-.152.192-.082.294c.069.101.183.113.301.033.125-.085.156-.194.085-.297zm-.053.036c.044.065.018.139-.072.2-.084.058-.165.055-.208-.009-.044-.064-.018-.139.07-.199.086-.058.167-.055.21.008zM29.193 16.857l-.36.246.039.058.198-.136c.074-.05.148-.045.188.014.031.045.023.093-.02.122l-.249.17.039.057.272-.186c.06-.041.068-.112.02-.181-.037-.053-.081-.074-.152-.071l.06-.041-.035-.052zM29.717 17.658l-.055.016.002-.125c-.063-.092-.211-.114-.311-.046-.071.049-.093.134-.049.198l.116.064-.001.112c.035.051.083.079.148.086.07.008.14-.009.193-.046.139-.095.165-.307.055-.467-.056-.082-.149-.145-.245-.168-.107-.025-.227-.004-.317.058-.152.104-.18.326-.061.5l.135.135.033-.051-.112-.118c-.1-.145-.075-.326.056-.416.144-.098.354-.059.453.086.09.131.069.307-.046.386-.08.055-.197.051-.237-.007l.007-.055.04-.015.234-.07-.038-.057zm-.1-.083c.026.038.017.086-.022.11l-.143.043-.092-.039c-.026-.038-.011-.092.034-.123.077-.053.183-.048.223.009zM30.063 17.828l-.5.342.035.051.046-.032c-.023.056-.018.106.016.156.065.095.185.103.304.022.117-.08.148-.188.084-.283-.034-.049-.076-.072-.135-.071l.189-.129-.039-.056zm-.077.283c.044.064.016.143-.07.202-.082.056-.166.051-.209-.011-.041-.06-.014-.138.071-.195.085-.059.167-.056.208.004zM30.024 18.846l.36-.246-.039-.057-.204.139c-.073.05-.148.045-.189-.015-.031-.045-.023-.093.02-.122l.255-.174-.039-.057-.277.19c-.06.041-.068.112-.02.182.036.053.078.074.148.075l-.05.034.035.051zM30.791 18.894l-.039-.057-.186.127c.02-.049.013-.1-.02-.148-.064-.093-.18-.103-.295-.025-.122.083-.155.194-.089.291.034.049.076.071.141.072l-.047.032.035.051.5-.343zm-.292-.032c.042.062.014.138-.072.197-.083.057-.165.055-.206-.006-.043-.063-.016-.143.068-.2.084-.057.168-.054.21.009zM30.749 19.135l-.039-.057-.36.246.039.057.36-.246zm.141-.096l-.039-.058-.072.049.039.058.072-.049zM30.977 19.467l-.052.036c.023-.058.019-.106-.013-.152-.062-.091-.184-.099-.301-.019-.059.04-.096.089-.111.142l.022.136c.031.045.072.064.139.065l-.019.013-.112.047-.088-.057-.025-.078.026-.05-.04-.058c-.064.053-.068.133-.01.218l.13.091c.052.005.104-.016.188-.073l.301-.205-.035-.056zm-.114-.075c.042.062.015.134-.075.195-.086.059-.163.057-.205-.003-.043-.062-.016-.136.072-.196.087-.058.166-.057.208.004zM30.846 19.894l-.049-.071-.071.049.049.071.071-.049zM31.547 20l-.039-.057-.186.127c.02-.049.013-.101-.02-.148-.064-.093-.18-.103-.295-.025-.121.083-.155.194-.089.291.034.049.076.071.142.071l-.047.032.035.051.499-.342zm-.291-.032c.042.062.014.138-.072.197-.083.057-.165.055-.206-.006-.043-.063-.016-.143.067-.2.084-.057.168-.053.211.009zM31.477 20.626l.105-.093c.043-.064.041-.143-.005-.21-.068-.1-.189-.112-.307-.031s-.148.193-.079.294c.056.082.142.107.23.068l-.039-.058c-.058.017-.105.001-.136-.045l-.012-.118.064-.072.179.265zm-.133-.295c.07-.041.141-.03.18.028.038.056.021.131-.038.172l-.005.002-.137-.202z"/><path fill="#fff" d="M18.383 13.544l-2.4-1.57c-.118.959-.151.95-.151 1.886 0 .627-.286.672-.905 1.615-.316.498-.566 1.033-.762 1.577-.121.324-.234.663-.324.995l-.144.506c-.309 1.139-1.412 2.542-1.667 3.681-.257 1.132-.569 1.856-.521 3.373.038 1.189.052 1.078.512 1.456.453.377.921.732 1.638 1.365.755.657 2.323 1.803 2.535 2.159.226.362.424.936.083 1.441-.341.505-1.693.446-1.686.446-.007 0 1.174 1.402 1.378 1.607.196.196 1.275 1.123 4.715.482 1.939-.363 3.44-1.448 4.527-2.497 1.403-1.365 1.502-1.79 1.761-2.554.328-.969.487-1.703.591-2.164.096-.423.228-1.703.228-2.307 0-1.57-.18-3.169-.543-4.347-.332-1.101-.86-1.871-1.313-2.867-.905-1.984-.86-2.875-1.667-4.142-.92-1.464-.467-2.437-1.69-2.377-1.524.086-2.754 2.176-4.195 2.236z"/><path d="M22.141 17.838c.045-.204 2.18-.551 2.565-.438.377.113 2.104 2.542 1.802 2.641-.293.099-.95-.905-1.991-1.388-1.048-.484-2.414-.612-2.376-.815zM17.386 22.554c.196.038-.117 1.455-.131 2.912-.016 1.457.259 2.082.131 2.226-.129.144-.461-.543-.445-1.999.014-1.457.248-3.184.445-3.139zM18.18 17.679c.113.008.935-.166.965-.09.03.052-.513.226-.679.392-.038.046-.211.197-.302.189-.075-.007-.12-.158-.226-.279-.264-.264-.43-.241-.377-.34.037-.083.4.12.619.128zM15.487 17.897c-.048.208-.766.306-1.275.596-.311.177-.475.444-.9.796-.425.352 1.424-4.203 1.319-3.614-.105.589-.305.914-.2 1.268.188.628 1.105.746 1.056.954z"/><g fill="#FFB80F"><path d="M33.435 27.616c.467.679-.015 1.561.325 2.105.558.89 1.682 1.788 2.113 2.037.309.189.746.369.731.92-.023.627-.332.792-.505.966-.348.347-2.098 1.215-3.26 2.007-1.464 1.003-1.969 1.448-2.445 1.924-.739.739-1.441.988-2.565.988-1.123 0-1.63-.234-1.976-.543-.347-.302-.731-1.072-.694-2.218.029-1.139.392-2.181.566-3.954.075-.762.067-1.705.067-2.542 0-1.056.016-1.954.242-2.091.408-.257.498-.271.981-.271s.701.03.86.189c.151.151.09.498.038.988-.046.49.189.649.422.853.234.196.445.445 1.184.505.74.054 1.011-.068 1.358-.286.347-.219.837-.612 1.019-.838.174-.218.604-.972.686-.972.076-.001.575-.175.853.233zM7.118 28.778c-.679.49-2.399.444-2.837 1.019-.43.573.016 1.403.007 2.943 0 .656-.113 1.154-.189 1.554-.105.505-.173.86.038 1.222.386.641 1.004.8 4.543 1.54 1.894.392 3.681 1.41 4.881 1.509 1.2.09 1.457-.309 2.188-.958.724-.65.959-.445.936-1.872-.023-1.419-.936-1.841-1.969-3.478-1.034-1.638-1.2-1.94-1.886-3.025-.686-1.072-2.045-3.018-2.822-3.041-.618-.015-.966.317-1.351.71-.384.39-.86 1.387-1.539 1.877z"/></g><path fill="#fff" d="M17.176 9.96c.453-.181.467-.167.769-.823.242-.505.363-.762.355-1.532 0-.755-.234-1.01-.589-1.501-.34-.468-.882-.49-1.222-.431-.196.03-.453.28-.627.649-.113.249-.203.566-.211.898-.023.891.052 1.23.256 1.834.243.71.831 1.079 1.269.906z"/><path d="M16.753 6.889c.226 0 .513.151.649.355.143.203.249.49.249.814 0 .483-.053 1.019-.34 1.185-.091.053-.287.098-.4.098-.257 0-.279-.166-.521-.415-.083-.09-.332-.528-.332-.89 0-.226-.052-.551.144-.837.136-.212.309-.31.551-.31z"/><path fill="#fff" d="M21.854 10.058c1.132-.12 1.532-.558 1.735-1.32.181-.679.189-1.434-.316-2.316-.476-.845-.747-.981-1.434-1.033-1.056-.091-1.555.649-1.789 1.177-.248.573-.196.49-.181 1.215.016.762.249 1.079.513 1.554.264.467 1.344.731 1.472.723z"/><path d="M21.764 6.86c.566 0 .897.505 1.01 1.154.046.294-.022.634-.203.868-.203.271-.566.438-.86.438-.279 0-.596.045-.762-.181-.166-.234-.203-.755-.203-1.124 0-.415.121-.71.331-.943.158-.175.445-.212.687-.212z"/><path fill="#fff" d="M21.884 7.214c.06-.061.189 0 .332.158.151.167.151.302.029.393-.113.098-.158-.144-.234-.235-.134-.135-.247-.203-.127-.316z"/><path fill="#fff" d="M16.805 7.285c.043-.083.253-.062.346.094.092.161.108.531.058.547-.131.051-.122-.17-.242-.317-.113-.148-.205-.236-.162-.324z"/><path fill="#fff" d="M22.278 4.93c.004.061.333.121.469.17.136.049.455.326.58.47.125.144.355.611.431.59.076-.021-.091-.335-.212-.509s-.494-.571-.732-.669c-.237-.098-.539-.113-.536-.052z"/><path fill="#fff" d="M17.114 5.166c.005.109.356.075.72.389.372.321.414.607.528.596.114-.011-.059-.364-.44-.702-.298-.263-.813-.391-.808-.283z"/><path fill="#FFB80F" d="M18.904 8.369c.55-.068 1.305.067 1.653.324.324.242.55.37.845.468.988.324 2.287.475 2.226 1.366-.068 1.064-.377 1.539-1.26 1.818-.709.219-1.977 1.448-2.958 1.448-.437 0-1.049.023-1.403-.105-.34-.122-.815-.695-1.373-1.155-.559-.453-1.079-.936-1.094-1.57-.023-.671.415-.89 1.033-1.425.325-.287.913-.763 1.32-.974.377-.188.618-.15 1.011-.195z"/><path d="M17.115 12.017c-.175-.063-.347-.163-.415-.224-.241-.152-.668-.562-.814-.656-.045-.015-.171-.005-.144.083.076.247.237.395.452.567.262.21.585.419.868.561.166.083.581.178.581.178.399.052.77.038 1.011.038.566 0 1.268-.234 2.007-.589.725-.362.898-.505 1.412-.8.498-.279 1.124-.641.905-.747-.219-.113-.438.045-1.155.476-.694.422-1.169.686-1.863.988-.318.136-.74.302-1.056.325-.302.022-.695.015-.928.015-.272-.001-.575-.112-.861-.215zM19.349 8.888c.083.167.293.189.437.272.136.075.212.09.264.06.121-.06.031-.279-.09-.354-.113-.075-.657-.091-.611.022zM17.689 9.138c-.023.068.165.196.256.106l.273-.196c.189-.122.113-.204-.189-.159-.31.06-.31.181-.34.249z"/><g fill="#fff"><path d="M29.996 23.385c-.111.796-.172 1.099-.332 1.631-.136.451-.33.904-.384 1.04-.021.055.09.047.139-.022l.139-.26c.228-.51.771-2.162.568-3.55-.178-1.221-.63-2.236-1.604-3.264-.289-.305-1.258-.904-1.326-.786-.051.089.82.285 1.731 1.498.821 1.092 1.232 2.545 1.069 3.713zM28.622 26.186c.264-.17.872-.231 1.256-.211.384.02.819.086.819.086s.386.057.739.2c.353.142.803.411.824.678.021.267-.136.166-.292-.072-.156-.238-.456-.418-.826-.542-.37-.124-.908-.178-1.124-.191-.216-.013-.766-.015-1.084.088s-.483.346-.634.378c-.151.031.058-.244.322-.414zM10.676 23.636c-.075.847.046 1.549.286 2.036.262.533 1.076 1.229 1.023 1.284-.115.116-1.032-.942-1.213-1.339-.244-.536-.355-1.169-.254-2.066.137-1.226.548-2.195 1.031-3.223.179-.381.705-1.359.794-1.257.113.13-.306.433-.869 1.79-.525 1.262-.712 1.804-.798 2.775z"/></g></svg>