<?xml version="1.0" encoding="UTF-8" standalone="no"?>
<!-- Created with Inkscape (http://www.inkscape.org/) -->
<svg id="svg2" xmlns:rdf="http://www.w3.org/1999/02/22-rdf-syntax-ns#" xmlns="http://www.w3.org/2000/svg" xml:space="preserve" height="40" width="40" version="1.1" xmlns:cc="http://creativecommons.org/ns#" xmlns:dc="http://purl.org/dc/elements/1.1/"><metadata id="metadata8"><rdf:RDF><cc:Work rdf:about=""><dc:format>image/svg+xml</dc:format><dc:type rdf:resource="http://purl.org/dc/dcmitype/StillImage"/><dc:title/></cc:Work></rdf:RDF></metadata><g id="g10" transform="matrix(1.25 0 0 -1.25 0 40)"><g id="g24" transform="matrix(.083097 0 0 .083097 5.2227 21.404)"><path id="path26" d="m0 0c-12.556 0.006-22.732-10.19-22.735-22.735l0.017-95.214c0.003-12.588 10.197-22.747 22.738-22.759 12.566 0.015 22.744 10.178 22.731 22.758l0.002 95.227c-0.005 12.542-10.195 22.732-22.753 22.723" fill="#fff"/></g><g id="g32" transform="matrix(.083097 0 0 .083097 20.163 24.789)"><path id="path34" d="m0 0c-4.734-0.005-8.597 3.828-8.588 8.585 0 4.707 3.848 8.588 8.592 8.604 4.709-0.013 8.572-3.895 8.568-8.609 0.003-4.74-3.839-8.581-8.572-8.58m-93.257-0.017c-4.717 0.011-8.559 3.845-8.56 8.581 0.002 4.718 3.842 8.596 8.567 8.596 4.749 0.004 8.59-3.878 8.596-8.594 0.002-4.733-3.847-8.58-8.603-8.583m96.818 44.782 15.869 28.981c0.846 1.514 0.293 3.454-1.238 4.293-1.552 0.836-3.467 0.265-4.285-1.257l-16.035-29.271c-13.486 5.985-28.585 9.356-44.547 9.34-15.929 0.013-31.001-3.34-44.448-9.309l-16.046 29.207c-0.828 1.54-2.762 2.103-4.271 1.255-1.543-0.823-2.107-2.759-1.252-4.27l15.876-28.956c-31.196-16.092-52.266-46.727-52.256-81.899l204.81 0.021c0.007 35.167-21.031 65.738-52.179 81.865" fill="#fff"/></g><g id="g40" transform="matrix(.083097 0 0 .083097 7.8484 8.787)"><path id="path42" d="m0 0c-0.012-13.436 10.833-24.282 24.257-24.277l16.52-0.001 0.019-50.379c-0.003-12.541 10.187-22.738 22.72-22.739 12.564 0 22.742 10.206 22.731 22.756l0.002 50.368 30.696 0.005-0.002-50.377c0.011-12.543 10.214-22.749 22.744-22.728 12.562-0.008 22.747 10.198 22.745 22.749l-0.014 50.363 16.58 0.005c13.378-0.005 24.261 10.867 24.26 24.274l-0.03 147.56-203.27-0.04 0.04-147.54z" fill="#fff"/></g><g id="g48" transform="matrix(.083097 0 0 .083097 27.355 21.407)"><path id="path50" d="m0 0c-12.555 0.01-22.731-10.186-22.729-22.743l0.009-95.213c0.006-12.572 10.177-22.743 22.743-22.735 12.555 0.002 22.719 10.165 22.73 22.743l-0.025 95.211c-0.002 12.562-10.171 22.742-22.728 22.739" fill="#fff"/></g><g id="g52" transform="matrix(.086865 0 0 .086865 29.542 19.677)"><path id="path54" d="m0 0c-0.002 12.557-10.18 22.734-22.736 22.731-12.555 0.01-22.732-10.185-22.729-22.743l0.016-95.215c-0.001-12.57 10.172-22.729 22.736-22.733 12.555 0.002 22.727 10.163 22.73 22.743l-0.017 95.217zm-257.52 18.408 0.035-147.56c-0.011-13.422 10.845-24.255 24.26-24.258l16.519-0.007 0.019-50.379c-0.003-12.541 10.193-22.739 22.72-22.739 12.564 0 22.742 10.206 22.745 22.755l-0.012 50.369 30.696 0.006 0.013-50.377c-0.003-12.536 10.199-22.749 22.728-22.729 12.563-0.008 22.747 10.198 22.745 22.749l-0.014 50.363 16.577 0.013c13.382-0.005 24.268 10.844 24.271 24.266l-0.027 147.55-203.28-0.032zm148.23 45.029c-4.735-0.005-8.589 3.834-8.588 8.585 0.016 4.705 3.848 8.588 8.592 8.604 4.709-0.013 8.572-3.895 8.568-8.609 0.011-4.741-3.839-8.581-8.572-8.58m-93.258-0.017c-4.716 0.011-8.558 3.845-8.559 8.581 0.002 4.718 3.835 8.597 8.567 8.596 4.749 0.004 8.59-3.878 8.596-8.594 0.002-4.732-3.848-8.58-8.604-8.583m96.818 44.782 15.87 28.981c0.846 1.514 0.291 3.443-1.245 4.298-1.547 0.82-3.46 0.263-4.278-1.262l-16.029-29.283c-13.491 6.001-28.582 9.37-44.553 9.352-15.929 0.013-31.016-3.341-44.448-9.309l-16.046 29.207c-0.836 1.541-2.755 2.098-4.27 1.259-1.545-0.831-2.109-2.763-1.253-4.274l15.877-28.959c-31.19-16.097-52.27-46.732-52.25-81.904l204.81 0.021c0.006 35.167-21.032 65.738-52.181 81.865m-183.36-85.499c-12.556 0.006-22.732-10.191-22.735-22.736l0.017-95.213c0.003-12.588 10.183-22.745 22.74-22.743 12.564-0.001 22.742 10.162 22.729 22.742l0.002 95.227c-0.005 12.542-10.196 22.731-22.753 22.723" fill="#a4c439"/></g></g></svg>