<?xml version="1.0" encoding="UTF-8" standalone="no"?>
<!-- Created with Inkscape (http://www.inkscape.org/) -->
<svg id="图层_1" xmlns:rdf="http://www.w3.org/1999/02/22-rdf-syntax-ns#" xmlns="http://www.w3.org/2000/svg" xml:space="preserve" height="40" width="40" version="1.1" xmlns:cc="http://creativecommons.org/ns#" viewBox="0 0 40 40.000004" xmlns:dc="http://purl.org/dc/elements/1.1/"><metadata id="metadata9"><rdf:RDF><cc:Work rdf:about=""><dc:format>image/svg+xml</dc:format><dc:type rdf:resource="http://purl.org/dc/dcmitype/StillImage"/><dc:title/></cc:Work></rdf:RDF></metadata><path id="path3" fill="#808080" d="m30.916 21.251c0.05621 6.0533 5.3103 8.0676 5.3685 8.0934-0.04443 0.14206-0.83952 2.8707-2.7681 5.6891-1.6672 2.4367-3.3975 4.8645-6.1233 4.9148-2.6783 0.0494-3.5396-1.5883-6.6017-1.5883-3.0612 0-4.018 1.538-6.5534 1.6376-2.631 0.0996-4.6346-2.635-6.3156-5.0628-3.435-4.9661-6.0601-14.033-2.5353-20.153 1.751-3.0394 4.8803-4.964 8.2768-5.0134 2.5836-0.0493 5.0223 1.7382 6.6017 1.7382 1.5784 0 4.5419-2.1496 7.6572-1.8339 1.3042 0.0543 4.9651 0.52683 7.3159 3.9678-0.18942 0.11742-4.3682 2.5501-4.3228 7.6109m-5.033-14.865c1.397-1.6908 2.337-4.0446 2.08-6.3866-2.013 0.080899-4.448 1.3417-5.892 3.0316-1.2943 1.4965-2.4278 3.8917-2.1219 6.1873 2.2442 0.17363 4.5369-1.1404 5.9338-2.8323"/></svg>