<?xml version="1.0" encoding="UTF-8" standalone="no"?>
<!-- Created with Inkscape (http://www.inkscape.org/) -->
<svg id="Layer_1" xmlns:rdf="http://www.w3.org/1999/02/22-rdf-syntax-ns#" xmlns="http://www.w3.org/2000/svg" xml:space="preserve" height="28.181" width="40" version="1.1" xmlns:cc="http://creativecommons.org/ns#" viewBox="0 0 39.999999 28.180721" xmlns:dc="http://purl.org/dc/elements/1.1/"><metadata id="metadata55"><rdf:RDF><cc:Work rdf:about=""><dc:format>image/svg+xml</dc:format><dc:type rdf:resource="http://purl.org/dc/dcmitype/StillImage"/><dc:title/></cc:Work></rdf:RDF></metadata><g id="g27" transform="matrix(1.0507 0 0 1.0507 -4.3961 -9.4899)"><path id="path29" d="m16.451 11.896c0-1.264-0.774-2.864-4.027-2.864h-5.009l-1.424 6.588h5.222c4.077 0 5.238-1.93 5.238-3.724z"/><path id="path31" d="m29.944 11.896c0-1.264-0.772-2.864-4.024-2.864h-5.01l-1.423 6.587h5.219c4.079 0.001 5.238-1.929 5.238-3.723z"/><path id="path33" d="m14.644 21.811c0-1.264-0.774-2.868-4.027-2.868h-5.009l-1.424 6.592h5.22c4.078 0 5.24-1.935 5.24-3.724z"/><path id="path35" d="m28.137 21.811c0-1.264-0.775-2.868-4.025-2.868h-5.009l-1.426 6.592h5.222c4.079 0 5.238-1.935 5.238-3.724z"/><path id="path37" d="m42.254 17.79c0-1.265-0.775-2.868-4.025-2.868h-5.009l-1.426 6.591h5.22c4.079 0 5.24-1.93 5.24-3.723z"/><path id="path39" d="m40.308 28.113c0-1.265-0.773-2.864-4.025-2.864h-5.009l-1.424 6.588h5.22c4.078 0 5.238-1.935 5.238-3.724z"/><path id="path41" d="m26.198 32.135c0-1.27-0.772-2.873-4.022-2.873h-5.012l-1.424 6.591h5.22c4.079 0.001 5.238-1.929 5.238-3.718z"/></g></svg>