<svg xmlns="http://www.w3.org/2000/svg" viewBox="0 0 260 260"><circle cx="130" cy="130" r="106" fill="#2ca5e0"/><path d="m68.12 129.08l71.38-29.411c7.05-3.063 30.941-12.87 30.941-12.87 0 0 11.03-4.287 10.112 6.128-.306 4.287-2.758 19.3-5.207 35.535l-7.659 48.1c0 0-.612 7.05-5.821 8.272-5.207 1.226-13.783-4.287-15.319-5.515-1.226-.919-22.978-14.705-30.941-21.444-2.144-1.838-4.596-5.515.306-9.803 11.03-10.112 24.2-22.671 32.17-30.636 3.676-3.676 7.353-12.254-7.965-1.838l-43.2 29.1c0 0-4.902 3.063-14.09.306-9.191-2.758-19.914-6.433-19.914-6.433 0 0-7.353-4.596 5.207-9.496" fill="#fff"/></svg>